<mxfile host="Electron" modified="2020-04-10T08:41:10.188Z" agent="5.0 (Macintosh; Intel Mac OS X 10_14_5) AppleWebKit/537.36 (KHTML, like Gecko) draw.io/12.9.9 Chrome/80.0.3987.163 Electron/8.2.1 Safari/537.36" etag="hTw7EeExGu1x_cFj0NVQ" version="12.9.9" type="device">
  <diagram id="SBkHgxvzu7_uguR8F3Vs" name="Page-1">
    <mxGraphModel dx="1106" dy="830" grid="1" gridSize="10" guides="1" tooltips="1" connect="1" arrows="1" fold="1" page="1" pageScale="1" pageWidth="850" pageHeight="1100" math="0" shadow="0">
      <root>
        <mxCell id="0" />
        <mxCell id="1" parent="0" />
        <mxCell id="r4k3_UZA_SzI7aF3ZPUD-1" value="&lt;b&gt;&lt;u&gt;Test Diagram&lt;/u&gt;&lt;/b&gt;" style="text;html=1;align=center;verticalAlign=middle;resizable=0;points=[];autosize=1;" vertex="1" parent="1">
          <mxGeometry x="321" y="318" width="90" height="20" as="geometry" />
        </mxCell>
        <mxCell id="r4k3_UZA_SzI7aF3ZPUD-2" value="this is only a test" style="text;html=1;align=center;verticalAlign=middle;resizable=0;points=[];autosize=1;" vertex="1" parent="1">
          <mxGeometry x="316" y="390" width="100" height="20" as="geometry" />
        </mxCell>
        <mxCell id="r4k3_UZA_SzI7aF3ZPUD-3" value="" style="endArrow=none;html=1;" edge="1" parent="1" source="r4k3_UZA_SzI7aF3ZPUD-2" target="r4k3_UZA_SzI7aF3ZPUD-1">
          <mxGeometry width="50" height="50" relative="1" as="geometry">
            <mxPoint x="220" y="430" as="sourcePoint" />
            <mxPoint x="270" y="380" as="targetPoint" />
          </mxGeometry>
        </mxCell>
      </root>
    </mxGraphModel>
  </diagram>
</mxfile>
